<?xml version="1.0" encoding="UTF-8"?>
<!DOCTYPE svg PUBLIC "-//W3C//DTD SVG 1.1//EN" "http://www.w3.org/Graphics/SVG/1.1/DTD/svg11.dtd">
<!-- Creator: CorelDRAW 2020 (64 Bit) -->
<svg xmlns="http://www.w3.org/2000/svg" xml:space="preserve" width="101.69mm" height="101.69mm" version="1.1" style="shape-rendering:geometricPrecision; text-rendering:geometricPrecision; image-rendering:optimizeQuality; fill-rule:evenodd; clip-rule:evenodd"
viewBox="0 0 499.84 499.84"
 xmlns:xlink="http://www.w3.org/1999/xlink"
 xmlns:xodm="http://www.corel.com/coreldraw/odm/2003">
 <defs>
  <style type="text/css">
   <![CDATA[
    .fil0 {fill:none}
    .fil1 {fill:#2B58FF}
   ]]>
  </style>
 </defs>
 <g id="Camada_x0020_1">
  <metadata id="CorelCorpID_0Corel-Layer"/>
  <circle class="fil0" cx="249.92" cy="249.92" r="249.92"/>
  <path class="fil1" d="M210.22 393.33c-45,0 -74.73,-8.94 -98.29,-33.97 -23.56,-25.03 -35.35,-60.57 -35.35,-106.64 0,-22.9 3.59,-43.33 10.78,-61.31 7.19,-17.97 17.04,-33.15 29.55,-45.53 12.51,-12.38 27.43,-21.77 44.73,-28.16 17.31,-6.39 36.08,-9.59 56.31,-9.59 11.72,0 22.37,0.87 31.95,2.6l-0.52 54.09c-5.66,-0.6 -25.99,-1.57 -32.23,-1.57 -9.59,0 -18.97,1.6 -28.16,4.79 -9.19,3.2 -17.31,8.32 -24.36,15.38 -7.06,7.06 -12.71,16.18 -16.97,27.36 -4.26,11.18 -6.39,24.76 -6.39,40.74 0,12.78 1.4,24.7 4.19,35.75 2.8,11.05 7.32,20.57 13.58,28.56 6.26,7.99 14.45,14.31 24.56,18.97 10.12,4.66 22.37,6.99 36.74,6.99 9.05,0 23.03,-4.92 30.22,-5.99l-0.66 52.32c-11.41,1.75 -26.21,5.21 -39.7,5.21zm39.7 86.78c127.13,0 230.19,-103.06 230.19,-230.19 0,-127.13 -103.06,-230.19 -230.19,-230.19l0 91.02c4.38,-0.47 8.87,-0.89 13.47,-1.25 15.18,-1.2 29.29,-1.8 42.34,-1.8 17.57,0 33.75,1.26 48.53,3.79 14.78,2.53 27.49,6.86 38.14,12.98 10.65,6.12 18.97,14.18 24.96,24.16 5.99,9.98 8.99,22.3 8.99,36.94 0,22.1 -10.65,39.54 -31.95,52.32 17.57,6.66 29.56,15.71 35.95,27.16 6.39,11.45 9.59,24.36 9.59,38.74 0,29.02 -10.58,50.86 -31.75,65.5 -21.17,14.64 -52.65,21.97 -94.46,21.97 -15.18,0 -30.29,-0.47 -45.33,-1.4 -6.06,-0.38 -12.21,-0.96 -18.46,-1.74l0 91.99zm32.24 -213.07l0 71.49c4.53,0.53 9.45,0.93 14.78,1.2 5.33,0.27 11.18,0.4 17.57,0.4 18.64,0 33.68,-2.66 45.13,-7.99 11.45,-5.33 17.17,-15.18 17.17,-29.55 0,-12.78 -4.79,-21.9 -14.38,-27.36 -9.59,-5.46 -23.3,-8.19 -41.14,-8.19l-39.14 0zm0 -47.53l30.35 0c19.17,0 32.88,-2.46 41.14,-7.39 8.25,-4.93 12.38,-12.85 12.38,-23.76 0,-11.18 -4.26,-19.04 -12.78,-23.56 -8.52,-4.53 -21.03,-6.79 -37.54,-6.79 -5.33,0 -11.05,0.07 -17.17,0.2 -6.12,0.13 -11.58,0.47 -16.38,1l0 60.31z"/>
 </g>
</svg>
