<?xml version="1.0" encoding="UTF-8"?>
<!DOCTYPE svg PUBLIC "-//W3C//DTD SVG 1.1//EN" "http://www.w3.org/Graphics/SVG/1.1/DTD/svg11.dtd">
<!-- Creator: CorelDRAW 2020 (64 Bit) -->
<svg xmlns="http://www.w3.org/2000/svg" xml:space="preserve" width="456.973mm" height="88.9802mm" version="1.1" style="shape-rendering:geometricPrecision; text-rendering:geometricPrecision; image-rendering:optimizeQuality; fill-rule:evenodd; clip-rule:evenodd"
viewBox="0 0 11735.96 2285.19"
 xmlns:xlink="http://www.w3.org/1999/xlink"
 xmlns:xodm="http://www.corel.com/coreldraw/odm/2003">
 <defs>
  <style type="text/css">
   <![CDATA[
    .fil0 {fill:#2B58FF}
   ]]>
  </style>
 </defs>
 <g id="Camada_x0020_1">
  <metadata id="CorelCorpID_0Corel-Layer"/>
  <path class="fil0" d="M2380.97 1579.77l0 279.62 -966.16 0 0 -1446.11 325.53 0 0 1166.49 640.63 0zm208.67 -1166.49l325.53 0 0 1446.11 -325.53 0 0 -1446.11zm1318.82 1475.32c-235.11,0 -414.22,-65.38 -537.33,-196.15 -123.12,-130.77 -184.68,-316.49 -184.68,-557.16 0,-119.64 18.78,-226.41 56.34,-320.32 37.56,-93.9 89.03,-173.2 154.42,-237.89 65.38,-64.69 143.29,-113.73 233.72,-147.12 90.42,-33.39 188.5,-50.08 294.23,-50.08 61.21,0 116.86,4.52 166.94,13.56 50.08,9.04 93.9,19.48 131.46,31.3 37.56,11.82 68.86,24 93.9,36.52 25.04,12.52 43.13,22.26 54.26,29.22l-93.9 262.93c-44.52,-23.65 -96.34,-43.82 -155.46,-60.52 -59.13,-16.69 -126.25,-25.04 -201.37,-25.04 -50.08,0 -99.12,8.35 -147.11,25.04 -47.99,16.69 -90.43,43.47 -127.29,80.34 -36.87,36.86 -66.43,84.51 -88.69,142.94 -22.26,58.43 -33.39,129.38 -33.39,212.85 0,66.78 7.3,129.03 21.91,186.76 14.61,57.73 38.26,107.47 70.95,149.2 32.69,41.73 75.47,74.77 128.34,99.12 52.86,24.34 116.86,36.52 191.98,36.52 47.3,0 89.73,-2.78 127.29,-8.35 37.56,-5.57 70.95,-12.17 100.16,-19.82 29.21,-7.65 54.95,-16.35 77.21,-26.09 22.26,-9.74 42.43,-18.78 60.52,-27.13l89.73 260.84c-45.91,27.82 -110.6,52.86 -194.07,75.12 -83.47,22.26 -180.15,33.39 -290.06,33.39zm1545.23 -29.21c-29.21,-46.95 -63.65,-98.08 -103.64,-152.68 -39.65,-54.6 -82.43,-109.55 -128.34,-165.2 -45.91,-55.65 -94.25,-108.86 -144.33,-159.63 -50.08,-50.78 -100.51,-95.99 -150.59,-134.94l0 612.46 -325.53 0 0 -1446.11 325.53 0 0 543.6c83.82,-87.99 168.68,-179.81 254.93,-275.8 86.6,-95.99 166.24,-185.37 239.28,-267.8l386.39 0c-98.42,117.2 -197.54,229.89 -297.01,338.05 -99.47,108.16 -204.5,217.02 -314.4,326.57 115.81,96.34 227.46,211.11 334.92,343.27 107.47,132.51 210.76,278.58 309.88,438.22l-387.09 0zm6282.27 425.8c-190.62,-611.06 -381.23,-1222.12 -571.85,-1833.17 -77.55,-248.61 -344.41,-452.01 -593.02,-452.01l-4821.5 0c190.62,611.06 381.23,1222.12 571.85,1833.17 77.55,248.61 344.41,452.01 593.02,452.01 1607.17,0 3214.33,0 4821.5,0zm-1650.3 -1278.93c58.43,-98.42 114.07,-196.85 166.94,-295.27 53.21,-98.77 101.9,-197.89 146.42,-297.71l358.92 0c-79.3,155.81 -161.37,306.75 -246.23,452.82 -84.86,146.07 -174.59,292.84 -269.19,440.3l0 552.99 -325.53 0 0 -548.81c-94.6,-147.46 -184.68,-294.92 -270.23,-442.39 -85.56,-147.46 -167.98,-299.1 -247.28,-454.91l377.7 0c44.52,99.82 92.51,198.94 143.64,297.71 51.47,98.42 106.42,196.85 164.85,295.27zm-1439.5 882.34c-101.55,0 -189.2,-14.26 -262.93,-42.78 -73.73,-28.52 -134.59,-68.17 -182.59,-118.95 -47.99,-50.78 -83.47,-111.29 -106.42,-181.55 -22.95,-70.25 -34.43,-147.81 -34.43,-232.67l0 -899.39 325.53 0 0 872.26c0,58.43 6.61,108.16 19.82,149.2 13.22,41.04 31.3,74.43 54.26,100.16 22.95,25.74 50.78,44.17 83.47,55.3 32.69,11.13 68.51,16.69 107.47,16.69 79.3,0 143.64,-24.35 193.03,-73.04 49.38,-48.69 74.08,-131.46 74.08,-248.32l0 -872.26 325.53 0 0 899.39c0,84.86 -11.82,162.76 -35.47,233.71 -23.65,70.95 -59.82,131.81 -108.51,182.59 -48.69,50.78 -110.6,90.08 -185.72,117.9 -75.12,27.82 -164.16,41.73 -267.1,41.73zm-1650.61 -907.73l158.59 0c100.16,0 171.81,-12.87 214.93,-38.6 43.13,-25.74 64.69,-67.12 64.69,-124.16 0,-58.43 -22.26,-99.47 -66.78,-123.12 -44.52,-23.65 -109.9,-35.47 -196.15,-35.47 -27.82,0 -57.73,0.35 -89.73,1.04 -32,0.7 -60.51,2.43 -85.56,5.22l0 315.1zm0 248.32l0 373.53c23.65,2.78 49.39,4.87 77.21,6.26 27.82,1.39 58.43,2.09 91.82,2.09 97.38,0 175.98,-13.91 235.8,-41.74 59.82,-27.82 89.73,-79.3 89.73,-154.42 0,-66.78 -25.04,-114.42 -75.12,-142.94 -50.08,-28.52 -121.73,-42.78 -214.94,-42.78l-204.5 0zm164.85 648.98c-79.3,0 -158.24,-2.43 -236.84,-7.3 -78.6,-4.87 -160.33,-16.35 -245.19,-34.43l0 -1402.29c66.78,-12.52 139.81,-21.91 219.11,-28.17 79.3,-6.26 153.03,-9.39 221.2,-9.39 91.82,0 176.33,6.61 253.54,19.82 77.21,13.22 143.64,35.82 199.28,67.82 55.65,32 99.12,74.08 130.42,126.25 31.3,52.17 46.95,116.51 46.95,193.02 0,115.47 -55.65,206.59 -166.94,273.36 91.82,34.78 154.42,82.08 187.81,141.9 33.39,59.82 50.08,127.29 50.08,202.41 0,151.64 -55.3,265.71 -165.9,342.23 -110.6,76.51 -275.1,114.77 -493.52,114.77zm-6438.39 10.43c-235.11,0 -414.22,-65.38 -537.33,-196.15 -123.12,-130.77 -184.68,-316.49 -184.68,-557.16 0,-119.64 18.78,-226.41 56.34,-320.32 37.56,-93.9 89.03,-173.2 154.42,-237.89 65.38,-64.69 143.29,-113.73 233.72,-147.12 90.42,-33.39 188.5,-50.08 294.23,-50.08 61.21,0 116.86,4.52 166.94,13.56 50.08,9.04 93.9,19.48 131.46,31.3 37.56,11.82 68.86,24 93.9,36.52 25.04,12.52 43.13,22.26 54.26,29.22l-93.9 262.93c-44.52,-23.65 -96.34,-43.82 -155.46,-60.52 -59.13,-16.69 -126.25,-25.04 -201.37,-25.04 -50.08,0 -99.12,8.35 -147.11,25.04 -47.99,16.69 -90.43,43.47 -127.29,80.34 -36.87,36.86 -66.43,84.51 -88.69,142.94 -22.26,58.43 -33.39,129.38 -33.39,212.85 0,66.78 7.3,129.03 21.91,186.76 14.61,57.73 38.26,107.47 70.95,149.2 32.69,41.73 75.47,74.77 128.34,99.12 52.86,24.34 116.86,36.52 191.98,36.52 47.3,0 89.73,-2.78 127.29,-8.35 37.56,-5.57 70.95,-12.17 100.16,-19.82 29.21,-7.65 54.95,-16.35 77.21,-26.09 22.26,-9.74 42.43,-18.78 60.52,-27.13l89.73 260.84c-45.91,27.82 -110.6,52.86 -194.07,75.12 -83.47,22.26 -180.15,33.39 -290.06,33.39z"/>
 </g>
</svg>
