<?xml version="1.0" encoding="UTF-8"?>
<!DOCTYPE svg PUBLIC "-//W3C//DTD SVG 1.1//EN" "http://www.w3.org/Graphics/SVG/1.1/DTD/svg11.dtd">
<!-- Creator: CorelDRAW 2020 (64 Bit) -->
<svg xmlns="http://www.w3.org/2000/svg" xml:space="preserve" width="804px" height="670px" version="1.1" style="shape-rendering:geometricPrecision; text-rendering:geometricPrecision; image-rendering:optimizeQuality; fill-rule:evenodd; clip-rule:evenodd"
viewBox="0 0 377760 314870"
 xmlns:xlink="http://www.w3.org/1999/xlink"
 xmlns:xodm="http://www.corel.com/coreldraw/odm/2003">
 <defs>
  <style type="text/css">
   <![CDATA[
    .fil0 {fill:#727376}
   ]]>
  </style>
 </defs>
 <g id="Camada_x0020_1">
  <metadata id="CorelCorpID_0Corel-Layer"/>
  <path class="fil0" d="M93700 127940l25040 0 6610 0c5140,0 9360,-4210 9360,-9360l0 0c0,-5140 -4220,-9350 -9360,-9350l-69210 0c-4750,10 -9290,-3520 -5090,-7620l19780 -19310c4260,-4160 4350,-11040 190,-15310l0 0c-4160,-4260 -11050,-4340 -15310,-180l-26400 25760c-550,530 -1020,1110 -1430,1720 -29600,18800 -29960,47270 -26260,64420 4440,20620 26950,45260 67760,43000l27340 0c5150,0 9360,-4210 9360,-9360l0 0c0,-5150 -4210,-9360 -9360,-9360l-5320 0 -5640 0c-1620,0 -2940,-1320 -2940,-2940l0 0c0,-1610 1320,-2930 2940,-2930l1910 0 28920 0 10040 0c5150,0 9360,-4210 9360,-9360l0 0c0,-5150 -4210,-9360 -9360,-9360l-8620 0 -23750 0 -7080 0c-1610,0 -2930,-1320 -2930,-2930l0 0c0,-1620 1320,-2940 2930,-2940l5190 0 25640 0c80,0 160,0 240,10l17560 -10c5140,0 9350,-4210 9350,-9360l0 0c0,-5140 -4210,-9360 -9350,-9360l-17070 0 -17980 0 -12850 0c-1610,0 -2930,-1320 -2930,-2930l0 0c0,-1620 1320,-2940 2930,-2940l5790 0zm100570 -127940c44360,0 84430,18360 113050,47880 -4640,1240 -9020,3700 -12610,7370 -10020,10270 -10410,26430 -1310,37170l-40990 0c-14420,0 -26170,11740 -26170,26160 0,1190 80,2360 240,3510 -6480,4760 -10690,12440 -10690,21080 0,8120 3720,15390 9540,20190 -240,1430 -370,2900 -370,4400 0,14420 11740,26170 26170,26170l3790 0c820,13690 12220,24590 26120,24590l26890 0c11240,570 22430,-570 33000,-3740 -22930,58590 -79950,100090 -146660,100090 -1810,0 -3600,-40 -5390,-100 -1790,60 -3580,100 -5390,100 -66710,0 -123730,-41500 -146660,-100090 10570,3170 21760,4310 33000,3740l26890 0c13900,0 25300,-10900 26120,-24590l3790 0c14430,0 26170,-11750 26170,-26170 0,-1500 -130,-2970 -370,-4400 5820,-4800 9540,-12070 9540,-20190 0,-8640 -4210,-16320 -10690,-21080 160,-1150 230,-2320 230,-3510 0,-14420 -11740,-26160 -26160,-26160l-40990 0c9100,-10740 8710,-26900 -1310,-37170 -3590,-3670 -7970,-6130 -12610,-7370 28620,-29520 68690,-47880 113050,-47880 1810,0 3600,40 5390,100 1790,-60 3580,-100 5390,-100zm-5390 273220c20980,0 37980,-12400 37980,-27710 0,-15300 -17000,-27700 -37980,-27700 -20980,0 -37980,12400 -37980,27700 0,15310 17000,27710 37980,27710zm95180 -145280l-25040 0 -6610 0c-5140,0 -9360,-4210 -9360,-9360l0 0c0,-5140 4220,-9350 9360,-9350l69210 0c4750,10 9290,-3520 5090,-7620l-19780 -19310c-4260,-4160 -4350,-11040 -190,-15310l0 0c4160,-4260 11050,-4340 15310,-180l26400 25760c550,530 1020,1110 1430,1720 29600,18800 29960,47270 26260,64420 -4440,20620 -26950,45260 -67760,43000l-27340 0c-5150,0 -9360,-4210 -9360,-9360l0 0c0,-5150 4210,-9360 9360,-9360l5320 0 5640 0c1620,0 2940,-1320 2940,-2940l0 0c0,-1610 -1320,-2930 -2940,-2930l-1910 0 -28920 0 -10040 0c-5150,0 -9360,-4210 -9360,-9360l0 0c0,-5150 4210,-9360 9360,-9360l8620 0 23750 0 7080 0c1610,0 2930,-1320 2930,-2930l0 0c0,-1620 -1320,-2940 -2930,-2940l-5190 0 -25640 0c-80,0 -160,0 -240,10l-17560 -10c-5140,0 -9350,-4210 -9350,-9360l0 0c0,-5140 4210,-9360 9350,-9360l17070 0 17980 0 12850 0c1610,0 2930,-1320 2930,-2930l0 0c0,-1620 -1320,-2940 -2930,-2940l-5790 0z"/>
 </g>
</svg>
