<?xml version="1.0" encoding="UTF-8"?>
<!DOCTYPE svg PUBLIC "-//W3C//DTD SVG 1.1//EN" "http://www.w3.org/Graphics/SVG/1.1/DTD/svg11.dtd">
<!-- Creator: CorelDRAW -->
<svg xmlns="http://www.w3.org/2000/svg" xml:space="preserve" width="66.3532mm" height="66.4633mm" version="1.1" style="shape-rendering:geometricPrecision; text-rendering:geometricPrecision; image-rendering:optimizeQuality; fill-rule:evenodd; clip-rule:evenodd"
viewBox="0 0 831.78 833.17"
 xmlns:xlink="http://www.w3.org/1999/xlink"
 xmlns:xodm="http://www.corel.com/coreldraw/odm/2003">
 <defs>
  <style type="text/css">
   <![CDATA[
    .fil0 {fill:black}
   ]]>
  </style>
 </defs>
 <g id="Camada_x0020_1">
  <metadata id="CorelCorpID_0Corel-Layer"/>
  <path class="fil0" d="M385.29 253.61c-216.29,42.91 -154.21,367.97 61.6,327.73 80.7,-15.05 153.16,-94.38 133.33,-196.46 -15.34,-78.97 -95.21,-151.05 -194.93,-131.27z"/>
  <path class="fil0" d="M131.88 439.19c7.48,-19.66 7.48,-24.01 0.09,-43.76 -24.42,-8.2 -42.43,-5.72 -72.93,-5.9 -27.37,-0.16 -57.26,-4.07 -58.95,25.78 -1.81,31.8 27.06,30.02 54.47,29.82 29.49,-0.22 53.6,2.98 77.32,-5.95z"/>
  <path class="fil0" d="M438.06 829.24c0.32,-6.2 6.36,-15.12 6.36,-33.78 0.3,-47.14 3.43,-45.83 -3.87,-90.66 -24.59,-15.27 -51.7,-11.36 -51.7,28.75 0,72.18 -10.38,112.89 49.21,95.69z"/>
  <path class="fil0" d="M191.28 608c-14.1,5.16 -49.11,43.69 -60.83,55.42 -27.67,27.7 -17.74,67.37 19.23,55.11 0.01,-0 85.49,-63.65 76.53,-93.96 -4.2,-14.21 -20.67,-21.79 -34.92,-16.57z"/>
  <path class="fil0" d="M714.14 391.86c-28.86,12.48 -23.42,49.14 8.69,53.03 13.91,1.69 83.52,1.77 93.59,-2.48 21.1,-8.9 22.97,-48.4 -10.34,-52.64 -14.54,-1.85 -82.52,-2 -91.95,2.08z"/>
  <path class="fil0" d="M624.26 607.7c-45.8,14.99 -0.38,56.59 10.59,67.51 12.88,12.82 40.57,52.14 67.46,43.14 12.79,-4.28 21.43,-17.44 14.47,-35.65 -0,-0.01 -64.9,-84.03 -92.53,-74.99z"/>
  <path class="fil0" d="M680.24 119.25c-23.75,12.98 -39.75,34.1 -58.91,53.22 -34.87,34.8 -3.59,68.17 24.96,51.89 8.38,-4.77 45.76,-44.73 56.1,-54.83 34.69,-33.89 7.67,-66.57 -22.14,-50.28z"/>
  <path class="fil0" d="M388.85 39.25c0,56.25 -11,113.54 48.29,94.6 11.15,-25.7 7.28,-61 7.28,-94.6 0,-50.05 -55.57,-54.56 -55.57,0z"/>
  <path class="fil0" d="M128.64 120.85c-0,0 -25.95,8.76 -10.58,35.86 0.04,0.07 65.38,85 95.41,68.17 36.6,-20.52 -8.04,-56.54 -19.72,-68.21 -13.28,-13.26 -40.76,-54.88 -65.11,-35.81z"/>
 </g>
</svg>
