<?xml version="1.0" encoding="UTF-8"?>
<!DOCTYPE svg PUBLIC "-//W3C//DTD SVG 1.1//EN" "http://www.w3.org/Graphics/SVG/1.1/DTD/svg11.dtd">
<!-- Creator: CorelDRAW 2020 (64 Bit) -->
<svg xmlns="http://www.w3.org/2000/svg" xml:space="preserve" width="786px" height="785px" version="1.1" style="shape-rendering:geometricPrecision; text-rendering:geometricPrecision; image-rendering:optimizeQuality; fill-rule:evenodd; clip-rule:evenodd"
viewBox="0 0 743610 743480"
 xmlns:xlink="http://www.w3.org/1999/xlink"
 xmlns:xodm="http://www.corel.com/coreldraw/odm/2003">
 <defs>
  <style type="text/css">
   <![CDATA[
    .fil0 {fill:url(#id0)}
    .fil1 {fill:url(#id1)}
   ]]>
  </style>
  <linearGradient id="id0" gradientUnits="userSpaceOnUse" x1="-217600" y1="365940" x2="934350" y2="399010">
   <stop offset="0" style="stop-opacity:1; stop-color:#7C49C9"/>
   <stop offset="1" style="stop-opacity:1; stop-color:#A1E6FF"/>
  </linearGradient>
  <linearGradient id="id1" gradientUnits="userSpaceOnUse" x1="-506240" y1="181380" x2="839720" y2="509730">
   <stop offset="0" style="stop-opacity:1; stop-color:#A1E6FF"/>
   <stop offset="1" style="stop-opacity:1; stop-color:#7C49C9"/>
  </linearGradient>
 </defs>
 <g id="Camada_x0020_1">
  <metadata id="CorelCorpID_0Corel-Layer"/>
  <path class="fil0" d="M608200 302740c-29840,-102420 -124400,-177280 -236460,-177280 -136020,0 -246280,110260 -246280,246280 0,136010 110260,246280 246280,246280 19030,0 44990,2820 83630,-23550 -27420,61900 -11910,144870 -57410,144410 -89560,-4940 -171770,-44300 -233130,-104770 -61440,-60560 -101960,-142280 -107990,-231810 -520,-7680 -770,-15340 -770,-22990 0,-83850 31240,-159280 83350,-215130 52110,-55860 125090,-92170 208560,-97790 7480,-510 15090,-760 22840,-760 46050,0 87490,8250 123640,21700 41700,15510 76390,37930 103040,62570 29060,26870 47120,56500 54420,82610 4060,14530 4760,27920 2150,39030 -2540,10800 -8240,19440 -17070,24840 -7370,4520 -16970,6840 -28800,6360l0 0z"/>
  <path class="fil1" d="M363550 453430l24500 -89140c10890,-30710 25440,-55280 69860,-62870 52050,-8300 99770,5070 149660,7600 13310,590 24230,-2060 32710,-7260 10350,-6330 17010,-16340 19930,-28790 2850,-12120 2120,-26570 -2230,-42140 -7580,-27130 -26250,-57840 -56210,-85550 -27210,-25160 -62610,-48030 -105120,-63850 -36850,-13710 -79030,-22120 -125830,-22120 -7780,0 -15540,270 -23260,790 -85120,5730 -159570,42790 -212750,99780 -53170,57000 -85060,133930 -85060,219430 0,7680 260,15490 800,23410 6140,91120 47360,174270 109870,235880 57700,56870 133550,95380 216720,104840 -1800,30 -3600,40 -5400,40 -205310,0 -371740,-166430 -371740,-371740 0,-205310 166430,-371740 371740,-371740 205310,0 377320,166510 371740,371740 -1620,59750 -30140,96630 -69770,103360 -61680,10470 -159650,-46230 -310160,-21670zm68390 -62830l-7900 31170 -7500 0 23370 -92270 24590 0 90 20c6530,920 12100,3750 16070,9070 4860,6510 5490,14030 3540,21730 -2220,8760 -7220,15810 -14260,21430 -6910,5510 -14760,8850 -23650,8850l-14350 0zm85300 -18850c600,-530 1210,-1040 1840,-1530 4540,-3630 10200,-7010 16160,-7280l1600 -70 -2000 7920 -890 40c-3730,180 -7700,2820 -10530,5070 -5480,4350 -9510,9770 -11410,16500l-7440 29370 -7500 0 14570 -57550 7510 0 -1910 7530zm77950 -12530c8300,0 15460,2790 20480,9530 5090,6830 5740,14740 3680,22860 -2320,9170 -7590,16540 -14940,22420 -7250,5800 -15510,9310 -24850,9310 -8300,0 -15440,-2790 -20470,-9530 -5090,-6820 -5760,-14710 -3710,-22780 2330,-9200 7580,-16610 14980,-22500 7240,-5770 15500,-9310 24830,-9310zm94150 54760c-20,20 -40,30 -60,50 -7250,5810 -15520,9310 -24880,9310 -8300,0 -15430,-2790 -20460,-9530 -5100,-6820 -5780,-14700 -3740,-22780 2330,-9200 7600,-16590 15000,-22480 7250,-5770 15500,-9270 24820,-9270 8290,0 15490,2730 20520,9470 310,410 600,830 870,1260l1470 -5790 7520 0 -11220 44340c-2270,8950 -7420,16150 -14610,21890 -7250,5780 -15500,9300 -24840,9300 -8300,0 -15470,-2790 -20500,-9520 -950,-1280 -1780,-2640 -2460,-4080l-580 -1220 8030 -2650 480 850c370,650 800,1260 1220,1850 3750,5000 9020,6980 15180,6980 7200,0 13550,-2740 19130,-7200 3790,-3030 6920,-6590 9110,-10780zm-243830 -76970l-11670 46080 13750 0c6840,0 12840,-2600 18150,-6830 5430,-4340 9340,-9760 11050,-16520 1450,-5740 1050,-11310 -2570,-16130 -3550,-4730 -8530,-6600 -14360,-6600l-14350 0zm148310 30000c-7210,0 -13570,2730 -19160,7200 -5730,4580 -9830,10270 -11640,17400 -1520,6040 -1110,11900 2720,17000 3740,4990 9040,6960 15180,6960 7210,0 13580,-2720 19180,-7180 5720,-4550 9810,-10250 11610,-17360 1530,-6070 1110,-11930 -2690,-17040 -3740,-5020 -9040,-6980 -15200,-6980zm103530 18840c210,-4370 -880,-8340 -3500,-11860 -3740,-5020 -9020,-6980 -15180,-6980 -7230,0 -13570,2720 -19190,7200 -5730,4580 -9800,10270 -11610,17400 -1530,6040 -1120,11910 2690,17020 3750,5020 9020,6990 15190,6990 7230,0 13570,-2750 19180,-7210 4130,-3300 7530,-7290 9770,-12100l2650 -10460zm-536920 22890c1780,2050 5710,3080 11820,3080 6600,0 12850,-2310 18760,-6960 730,-620 2290,-1990 4630,-4130l12540 4950c-4650,4680 -7910,7760 -9840,9290 -9420,7430 -19380,11150 -29890,11150 -10480,0 -18450,-3720 -23910,-11150 -5460,-7440 -6780,-16430 -3990,-26950 2800,-10510 8910,-19480 18330,-26920 9420,-7460 19380,-11180 29850,-11180 8990,0 16160,2720 21480,8170 870,930 1700,1940 2470,2990 330,450 1240,1870 2690,4220l-8810 7020 -46130 36420zm34520 -42780c-1250,-1190 -4580,-1800 -10010,-1800 -6550,0 -12780,2320 -18670,6980 -5900,4680 -9720,10290 -11480,16880 -1430,5390 -1770,8900 -990,10500l41150 -32560zm50140 -1120c7020,-7000 14360,-10680 21990,-11040l-3830 14370c-5110,280 -9560,1900 -13320,4880 -5700,4460 -9450,9770 -11260,15910l-9410 35360 -13830 0 18310 -68790 13820 0 -2470 9310zm47450 -9310l-18310 68790 -13840 0 18310 -68790 13840 0zm570 -28260c2670,0 4720,930 6140,2800 1420,1870 1760,4180 1040,6890 -720,2720 -2290,5020 -4710,6890 -2410,1870 -4960,2810 -7630,2810 -2630,0 -4660,-940 -6080,-2810 -1420,-1870 -1760,-4170 -1040,-6890 720,-2710 2300,-5020 4710,-6890 2410,-1870 4950,-2800 7570,-2800zm59230 73460l12530 4950c-4640,4680 -7900,7760 -9840,9290 -9410,7430 -19370,11150 -29890,11150 -10470,0 -18450,-3720 -23900,-11150 -5460,-7440 -6790,-16430 -3990,-26950 2800,-10510 8910,-19480 18320,-26920 9430,-7460 19380,-11180 29850,-11180 10520,0 18500,3720 23960,11160 1120,1530 2750,4580 4920,9170l-15200 5090c-1200,-2190 -2030,-3610 -2480,-4220 -3400,-4640 -8390,-6960 -14990,-6960 -6540,0 -12770,2320 -18670,6980 -5900,4680 -9720,10290 -11470,16880 -1740,6550 -910,12160 2500,16810 3420,4660 8410,6990 14960,6990 6590,0 12840,-2310 18760,-6960 730,-620 2280,-1990 4630,-4130z"/>
 </g>
</svg>
