<?xml version="1.0" encoding="UTF-8"?>
<!DOCTYPE svg PUBLIC "-//W3C//DTD SVG 1.1//EN" "http://www.w3.org/Graphics/SVG/1.1/DTD/svg11.dtd">
<!-- Creator: CorelDRAW 2020 (64 Bit) -->
<svg xmlns="http://www.w3.org/2000/svg" xml:space="preserve" width="816px" height="670px" version="1.1" style="shape-rendering:geometricPrecision; text-rendering:geometricPrecision; image-rendering:optimizeQuality; fill-rule:evenodd; clip-rule:evenodd"
viewBox="0 0 7847140 6447610"
 xmlns:xlink="http://www.w3.org/1999/xlink"
 xmlns:xodm="http://www.corel.com/coreldraw/odm/2003">
 <defs>
  <style type="text/css">
   <![CDATA[
    .fil0 {fill:#727376}
   ]]>
  </style>
 </defs>
 <g id="Camada_x0020_1">
  <metadata id="CorelCorpID_0Corel-Layer"/>
  <path class="fil0" d="M1918720 2619840l512740 0 135260 0c105380,0 191620,-86230 191620,-191620l0 0c0,-105390 -86240,-191620 -191620,-191620l-1417200 0c-97200,340 -190240,-72040 -104250,-155950l405090 -395320c87290,-85190 89000,-226230 3840,-313500l0 0c-85170,-87280 -226210,-89000 -313500,-3830l-540490 527460c-11210,10940 -21000,22800 -29390,35350 -605980,384980 -613350,967790 -537670,1319080 90990,422300 551820,926770 1387570,880420l559850 0c105410,0 191620,-86230 191620,-191630l0 0c0,-105390 -86220,-191620 -191620,-191620l-108960 0 -115550 0c-33060,0 -60110,-27050 -60110,-60120l0 0c0,-33070 27050,-60120 60110,-60120l39220 0 592030 0 205710 0c105380,0 191620,-86230 191620,-191620l0 0c0,-105400 -86270,-191630 -191620,-191630l-176580 0 -486390 0 -144860 0c-33060,0 -60110,-27050 -60110,-60120l0 0c0,-33070 27050,-60120 60110,-60120l106300 0 524950 0c1670,0 3320,70 4950,210l359490 -210c105390,-60 191620,-86230 191620,-191620l0 0c0,-105400 -86260,-191620 -191620,-191620l-349420 0 -368240 0 -263010 0c-33060,0 -60110,-27050 -60110,-60130l0 0c0,-33070 27050,-60120 60110,-60120l118510 0zm3132760 -81530c156680,0 283680,127000 283680,283680 0,156670 -127000,283670 -283680,283670 -156670,0 -283680,-127000 -283680,-283670 0,-156680 127010,-283680 283680,-283680zm1555970 283430c131020,83000 280400,-139670 194410,-223580l-220530 -215230c-87280,-85190 -89000,-226230 -3840,-313510l0 0c85170,-87270 226220,-89000 313500,-3820l355930 347360c11220,10930 21010,22800 29390,35360 605990,384980 613360,967790 537670,1319080 -90980,422300 -551810,926760 -1387570,880410l-559850 0c-105400,0 -191620,-86230 -191620,-191620l0 0c0,-105390 86230,-191620 191620,-191620l108960 0 115560 0c33060,0 60110,-27050 60110,-60120l0 0c0,-33080 -27050,-60130 -60110,-60130l-39220 0 -592040 0 -205710 0c-105380,0 -191620,-86220 -191620,-191620l0 0c0,-105390 86280,-191620 191620,-191620l176590 0 486380 0 144870 0c33060,0 60110,-27050 60110,-60120l0 0c0,-33070 -27050,-60120 -60110,-60120l-106310 0 -524940 0c-1670,0 -3320,70 -4960,200l-359490 -200c-105380,-60 -191620,-86230 -191620,-191630l0 0c0,-105390 86260,-191620 191620,-191620l349430 0 368230 0 263020 0c110820,0 188880,-205390 77850,-288050l-784950 -584390c-207710,-154640 -35640,-476240 228440,-291280l1039180 727870zm-2629480 -2821740c908410,0 1728920,375870 2314880,980390 213600,221710 388300,454800 524830,700030 -168960,-25070 -347250,28330 -475320,159560 -80790,82810 -130160,184850 -148240,291160l-437370 -306350c-219890,-154020 -510630,-165540 -702650,41170 -20400,21950 -38380,45030 -54020,68940 -466840,26630 -837200,413570 -837200,887090 0,308280 156990,579860 395390,739220 26110,118480 92800,221980 184670,295100 -5890,31240 -8970,63470 -8970,96390 0,286710 233440,520140 520140,520140l92570 0c8830,279050 238740,503490 519880,503490l551100 0c89790,4600 179410,3830 268160,-2700 -574320,887000 -1572480,1473980 -2707850,1473980 -36940,0 -73680,-850 -110310,-2080 -36640,1230 -73380,2080 -110320,2080 -1366120,0 -2533690,-849770 -3003170,-2049540 216350,64890 445470,88200 675700,76430l550700 0c284520,0 518080,-223100 534860,-503480l77590 0c295360,0 535820,-240470 535820,-535820 0,-30680 -2590,-60770 -7580,-90060 119270,-98360 195440,-247190 195440,-413430 0,-176910 -86270,-334130 -218940,-431780 3160,-23460 4780,-47400 4780,-71710 0,-295360 -240460,-535820 -535820,-535820l-839330 0c186370,-219770 178370,-550670 -26850,-760970 -73490,-75310 -163070,-125680 -258080,-151040 585960,-604520 1406470,-980390 2314880,-980390 36940,0 73680,850 110320,2080 36630,-1230 73370,-2080 110310,-2080zm-110310 5594700c429550,0 777770,-254020 777770,-567360 0,-313340 -348220,-567360 -777770,-567360 -429560,0 -777780,254020 -777780,567360 0,313340 348220,567360 777780,567360z"/>
 </g>
</svg>
